<svg xmlns="http://www.w3.org/2000/svg" xmlns:xlink="http://www.w3.org/1999/xlink" width="1800" zoomAndPan="magnify" viewBox="0 0 1350 1349.999938" height="1800" preserveAspectRatio="xMidYMid meet" version="1.0"><defs><g/><clipPath id="480e5ac815"><path d="M 105.191406 11.949219 L 1244.808594 11.949219 L 1244.808594 1338.539062 L 105.191406 1338.539062 Z M 105.191406 11.949219 " clip-rule="nonzero"/></clipPath><clipPath id="0d9caf36bf"><path d="M 675 11.949219 L 1244.808594 343.472656 L 1244.808594 1006.527344 L 675 1338.050781 L 105.191406 1006.527344 L 105.191406 343.472656 Z M 675 11.949219 " clip-rule="nonzero"/></clipPath><clipPath id="df84d30db3"><path d="M 0.191406 0.949219 L 1139.808594 0.949219 L 1139.808594 1327.238281 L 0.191406 1327.238281 Z M 0.191406 0.949219 " clip-rule="nonzero"/></clipPath><clipPath id="edb15e5974"><path d="M 570 0.949219 L 1139.808594 332.472656 L 1139.808594 995.527344 L 570 1327.050781 L 0.191406 995.527344 L 0.191406 332.472656 Z M 570 0.949219 " clip-rule="nonzero"/></clipPath><clipPath id="e0db5cb9aa"><rect x="0" width="1140" y="0" height="1328"/></clipPath><clipPath id="de58639461"><path d="M 105.191406 11.949219 L 1244.441406 11.949219 L 1244.441406 1337.949219 L 105.191406 1337.949219 Z M 105.191406 11.949219 " clip-rule="nonzero"/></clipPath><clipPath id="1bd5b25aef"><path d="M 674.996094 11.949219 L 1244.800781 343.472656 L 1244.800781 1006.519531 L 674.996094 1338.042969 L 105.191406 1006.519531 L 105.191406 343.472656 Z M 674.996094 11.949219 " clip-rule="nonzero"/></clipPath><clipPath id="ecfc8ba284"><rect x="0" width="539" y="0" height="151"/></clipPath></defs><g clip-path="url(#480e5ac815)"><g clip-path="url(#0d9caf36bf)"><g transform="matrix(1, 0, 0, 1, 105, 11)"><g clip-path="url(#e0db5cb9aa)"><g clip-path="url(#df84d30db3)"><g clip-path="url(#edb15e5974)"><path fill="#000000" d="M 0.191406 0.949219 L 1139.808594 0.949219 L 1139.808594 1327.539062 L 0.191406 1327.539062 Z M 0.191406 0.949219 " fill-opacity="1" fill-rule="nonzero"/></g></g></g></g></g></g><g clip-path="url(#de58639461)"><g clip-path="url(#1bd5b25aef)"><path stroke-linecap="butt" transform="matrix(0.75, 0, 0, 0.75, 105.19057, 11.948124)" fill="none" stroke-linejoin="miter" d="M 759.740717 0.00146021 L 1519.480318 442.032721 L 1519.480318 1326.095241 L 759.740717 1768.126502 L 0.00111529 1326.095241 L 0.00111529 442.032721 Z M 759.740717 0.00146021 " stroke="#aa97d1" stroke-width="100" stroke-opacity="1" stroke-miterlimit="4"/></g></g><path fill="#aa97d1" d="M 825.179688 892.945312 C 839.683594 926.488281 835.722656 961.453125 835.945312 995.992188 C 836.164062 1030.425781 836.15625 1064.859375 835.921875 1099.300781 C 835.726562 1124.90625 815.105469 1141.976562 791.332031 1136.761719 C 774.753906 1133.125 763.101562 1118.6875 763.0625 1100.859375 C 762.960938 1052.195312 762.78125 1003.523438 763.28125 954.863281 C 763.53125 930.613281 756.386719 909.566406 740.003906 891.746094 C 729.457031 880.269531 725.617188 867.183594 731.261719 852.445312 C 736.742188 838.152344 747.925781 831.519531 762.96875 828.722656 C 790.558594 823.59375 818.5625 819.167969 845.171875 810.636719 C 906.636719 790.917969 942.628906 747.027344 955.765625 684.457031 C 963.8125 646.105469 967.558594 607.363281 957.722656 568.613281 C 951.382812 543.628906 939.546875 521.34375 921.949219 502.542969 C 909.082031 488.796875 906.003906 474.234375 912.375 456.402344 C 921.863281 429.835938 922.835938 402.550781 915.847656 373.386719 C 906.269531 376.648438 896.765625 378.71875 888.367188 382.972656 C 867.113281 393.742188 845.855469 404.683594 825.574219 417.136719 C 811.96875 425.492188 799 427.984375 783.535156 423.984375 C 709.074219 404.714844 634.550781 404.746094 559.976562 424.078125 C 544.863281 427.996094 531.820312 426.070312 518.792969 417.242188 C 493.316406 399.988281 466.519531 385.066406 436.765625 376.226562 C 434.109375 375.4375 431.371094 374.917969 428.03125 374.121094 C 422.5 394.480469 422.058594 414.429688 425.820312 434.429688 C 427.492188 443.324219 430.175781 452.066406 432.917969 460.710938 C 437.339844 474.636719 435.484375 487.402344 425.570312 498.113281 C 393.113281 533.179688 378.699219 574.570312 380.585938 622.097656 C 381.894531 654.964844 385.882812 687.289062 398.140625 718.097656 C 418.003906 768.027344 455.859375 798.324219 505.964844 813.558594 C 529.5 820.714844 553.992188 825.050781 578.296875 829.21875 C 602.976562 833.449219 617.574219 848.617188 614.316406 870.972656 C 613.273438 878.109375 609.578125 885.847656 604.792969 891.273438 C 587.480469 910.894531 580.09375 933.226562 580.492188 959.300781 C 581.207031 1006.25 580.84375 1053.214844 580.664062 1100.171875 C 580.582031 1121.726562 565.144531 1137.621094 544.777344 1137.894531 C 524.273438 1138.167969 508.433594 1121.894531 508.222656 1099.960938 C 508.027344 1079.515625 508.179688 1059.070312 508.179688 1039.699219 C 489.570312 1039.699219 471.703125 1040.660156 453.972656 1039.507812 C 411.6875 1036.757812 376.472656 1018.316406 347.757812 987.699219 C 334.742188 973.824219 323.066406 958.675781 310.929688 943.988281 C 300.902344 931.855469 290.484375 921.101562 274.632812 915.617188 C 257.058594 909.535156 249.015625 888.640625 255.078125 870.992188 C 261.300781 852.863281 280.117188 842.890625 298.78125 847.679688 C 322.890625 853.867188 341.703125 868.171875 357.625 886.5625 C 369.164062 899.890625 380.242188 913.640625 391.140625 927.503906 C 421.65625 966.316406 461.472656 974.382812 507.140625 963.457031 C 507.996094 951.308594 508.109375 939.34375 509.867188 927.628906 C 511.585938 916.183594 514.988281 904.992188 517.714844 893.417969 C 504.71875 889.453125 491.070312 885.785156 477.753906 881.148438 C 380.394531 847.261719 327.53125 777.050781 312.484375 676.75 C 306.554688 637.21875 304.535156 597.511719 313.667969 557.984375 C 320.933594 526.523438 333.933594 497.722656 353.140625 471.800781 C 356.445312 467.339844 357.625 463.386719 356.359375 457.816406 C 346.105469 412.675781 349.828125 368.570312 367.058594 325.625 C 374.214844 307.792969 386.039062 300.625 405.097656 299.734375 C 450.085938 297.632812 489.367188 314.902344 526.335938 337.0625 C 544.054688 347.683594 559.714844 349.601562 579.480469 345.675781 C 646.992188 332.265625 714.683594 334.214844 781.929688 348.695312 C 789.6875 350.363281 795.652344 349.59375 802.511719 345.394531 C 835.871094 324.96875 870.617188 307.355469 909.753906 301.152344 C 921.703125 299.257812 934.222656 299.257812 946.304688 300.351562 C 960.71875 301.652344 970.679688 310.386719 976.167969 323.925781 C 993.898438 367.628906 997.894531 412.460938 987.742188 458.609375 C 986.960938 462.175781 987.84375 467.242188 989.960938 470.140625 C 1025.550781 518.914062 1039.414062 573.628906 1035.773438 633.394531 C 1033.351562 673.078125 1027.238281 711.96875 1011.6875 748.859375 C 982.28125 818.632812 928.957031 861.28125 857.996094 883.695312 C 847.488281 887.011719 836.785156 889.691406 825.179688 892.945312 Z M 825.179688 892.945312 " fill-opacity="1" fill-rule="nonzero"/><g transform="matrix(1, 0, 0, 1, 409, 555)"><g clip-path="url(#ecfc8ba284)"><g fill="#ffffff" fill-opacity="1"><g transform="translate(0.679129, 117.422115)"><g><path d="M 83.8125 -48.109375 L 83.8125 -1.953125 C 73.519531 0.890625 63.375 2.3125 53.375 2.3125 C 37.894531 2.3125 25.582031 -2.035156 16.4375 -10.734375 C 7.300781 -19.441406 2.734375 -31.15625 2.734375 -45.875 C 2.734375 -61.5 7.335938 -73.554688 16.546875 -82.046875 C 25.753906 -90.535156 38.847656 -94.78125 55.828125 -94.78125 C 64.191406 -94.78125 73.519531 -93.914062 83.8125 -92.1875 L 83.8125 -75.8125 C 73.476562 -78.976562 64.628906 -80.5625 57.265625 -80.5625 C 47.503906 -80.5625 39.785156 -77.519531 34.109375 -71.4375 C 28.441406 -65.351562 25.609375 -57.097656 25.609375 -46.671875 C 25.609375 -36.765625 28.5625 -28.632812 34.46875 -22.28125 C 40.382812 -15.9375 47.9375 -12.765625 57.125 -12.765625 C 58.570312 -12.765625 60.445312 -12.863281 62.75 -13.0625 L 63.328125 -13.125 L 63.328125 -33.828125 L 51.78125 -33.828125 L 51.78125 -48.109375 Z M 83.8125 -48.109375 "/></g></g></g><g fill="#ffffff" fill-opacity="1"><g transform="translate(89.656877, 117.422115)"><g><path d="M 42.703125 0 L 42.703125 -64.046875 L 14.203125 -64.046875 L 14.203125 -78.328125 L 64.046875 -78.328125 L 64.046875 0 Z M 42.703125 -92.546875 L 42.703125 -113.890625 L 64.046875 -113.890625 L 64.046875 -92.546875 Z M 42.703125 -92.546875 "/></g></g></g><g fill="#ffffff" fill-opacity="1"><g transform="translate(178.634626, 117.422115)"><g><path d="M 79.40625 -1.875 C 70.894531 0.570312 63.394531 1.796875 56.90625 1.796875 C 37.238281 1.796875 27.40625 -6.925781 27.40625 -24.375 L 27.40625 -62.3125 L 10.53125 -62.3125 L 10.53125 -76.53125 L 27.40625 -76.53125 L 27.40625 -99.6875 L 48.765625 -99.6875 L 48.765625 -76.53125 L 77.6875 -76.53125 L 77.6875 -62.3125 L 48.765625 -62.3125 L 48.765625 -29.140625 C 48.765625 -23.609375 49.785156 -19.722656 51.828125 -17.484375 C 53.867188 -15.253906 57.414062 -14.140625 62.46875 -14.140625 C 68.132812 -14.140625 73.78125 -15.289062 79.40625 -17.59375 Z M 79.40625 -1.875 "/></g></g></g><g fill="#ffffff" fill-opacity="1"><g transform="translate(267.612374, 117.422115)"><g><path d="M 7.578125 0 L 7.578125 -92.546875 L 28.921875 -92.546875 L 28.921875 -54.453125 L 60.078125 -54.453125 L 60.078125 -92.546875 L 81.4375 -92.546875 L 81.4375 0 L 60.078125 0 L 60.078125 -41.109375 L 28.921875 -41.109375 L 28.921875 0 Z M 7.578125 0 "/></g></g></g><g fill="#ffffff" fill-opacity="1"><g transform="translate(356.590123, 117.422115)"><g><path d="M 57.421875 0 L 57.421875 -15.140625 C 53.035156 -3.847656 44.765625 1.796875 32.609375 1.796875 C 17.117188 1.796875 9.375 -7.070312 9.375 -24.8125 L 9.375 -78.328125 L 30.734375 -78.328125 L 30.734375 -28.703125 C 30.734375 -20.242188 33.738281 -16.015625 39.75 -16.015625 C 46.382812 -16.015625 52.273438 -20.242188 57.421875 -28.703125 L 57.421875 -78.328125 L 78.765625 -78.328125 L 78.765625 0 Z M 57.421875 0 "/></g></g></g><g fill="#ffffff" fill-opacity="1"><g transform="translate(445.567871, 117.422115)"><g><path d="M 8.578125 0 L 8.578125 -113.890625 L 29.9375 -113.890625 L 29.9375 -63.546875 C 36.613281 -74.554688 44.765625 -80.0625 54.390625 -80.0625 C 63.421875 -80.0625 70.640625 -76.503906 76.046875 -69.390625 C 81.460938 -62.273438 84.171875 -52.773438 84.171875 -40.890625 C 84.171875 -27.910156 81.148438 -17.550781 75.109375 -9.8125 C 69.078125 -2.070312 61.015625 1.796875 50.921875 1.796875 C 42.503906 1.796875 35.507812 -1.300781 29.9375 -7.5 L 27.265625 0 Z M 29.9375 -22.21875 C 34.457031 -17.3125 39.578125 -14.859375 45.296875 -14.859375 C 55.734375 -14.859375 60.953125 -23.414062 60.953125 -40.53125 C 60.953125 -53.707031 56.40625 -60.296875 47.3125 -60.296875 C 41.207031 -60.296875 35.414062 -56.085938 29.9375 -47.671875 Z M 29.9375 -22.21875 "/></g></g></g></g></g></svg>