<svg xmlns="http://www.w3.org/2000/svg" xmlns:xlink="http://www.w3.org/1999/xlink" width="1800" zoomAndPan="magnify" viewBox="0 0 1350 1349.999938" height="1800" preserveAspectRatio="xMidYMid meet" version="1.0"><defs><g/><clipPath id="3740acf6a6"><path d="M 135 53.058594 L 1203.960938 53.058594 L 1203.960938 1297 L 135 1297 Z M 135 53.058594 " clip-rule="nonzero"/></clipPath><clipPath id="c207adc67b"><path d="M 669.480469 53.058594 L 1203.960938 364.03125 L 1203.960938 985.96875 L 669.480469 1296.941406 L 135 985.96875 L 135 364.03125 Z M 669.480469 53.058594 " clip-rule="nonzero"/></clipPath><clipPath id="4dd69e8d0b"><path d="M 0 0.0585938 L 1068.960938 0.0585938 L 1068.960938 1243.960938 L 0 1243.960938 Z M 0 0.0585938 " clip-rule="nonzero"/></clipPath><clipPath id="eb69045bc9"><path d="M 534.480469 0.0585938 L 1068.960938 311.03125 L 1068.960938 932.96875 L 534.480469 1243.941406 L 0 932.96875 L 0 311.03125 Z M 534.480469 0.0585938 " clip-rule="nonzero"/></clipPath><clipPath id="63e1ea213e"><rect x="0" width="1069" y="0" height="1244"/></clipPath><clipPath id="6dc3078650"><path d="M 135.003906 53.058594 L 1203.75 53.058594 L 1203.75 1296.933594 L 135.003906 1296.933594 Z M 135.003906 53.058594 " clip-rule="nonzero"/></clipPath><clipPath id="d83f89a720"><path d="M 669.480469 53.058594 L 1203.957031 364.027344 L 1203.957031 985.964844 L 669.480469 1296.933594 L 135.003906 985.964844 L 135.003906 364.027344 Z M 669.480469 53.058594 " clip-rule="nonzero"/></clipPath><clipPath id="429beb2161"><path d="M 442.011719 609.390625 L 897.261719 609.390625 L 897.261719 1086.390625 L 442.011719 1086.390625 Z M 442.011719 609.390625 " clip-rule="nonzero"/></clipPath><clipPath id="a800f440b8"><rect x="0" width="819" y="0" height="153"/></clipPath></defs><g clip-path="url(#3740acf6a6)"><g clip-path="url(#c207adc67b)"><g transform="matrix(1, 0, 0, 1, 135, 53)"><g clip-path="url(#63e1ea213e)"><g clip-path="url(#4dd69e8d0b)"><g clip-path="url(#eb69045bc9)"><path fill="#405e88" d="M 0 0.0585938 L 1068.960938 0.0585938 L 1068.960938 1244.398438 L 0 1244.398438 Z M 0 0.0585938 " fill-opacity="1" fill-rule="nonzero"/></g></g></g></g></g></g><g clip-path="url(#6dc3078650)"><g clip-path="url(#d83f89a720)"><path stroke-linecap="butt" transform="matrix(0.75, 0, 0, 0.75, 135.00295, 53.058743)" fill="none" stroke-linejoin="miter" d="M 712.636755 -0.00019947 L 1425.272234 414.624837 L 1425.272234 1243.874909 L 712.636755 1658.499946 L 0.00127557 1243.874909 L 0.00127557 414.624837 Z M 712.636755 -0.00019947 " stroke="#000000" stroke-width="100" stroke-opacity="1" stroke-miterlimit="4"/></g></g><path fill="#b1c381" d="M 883.808594 950.171875 L 872.75 950.171875 L 872.75 925.828125 L 860.519531 925.828125 L 860.519531 913.664062 L 848.285156 913.664062 L 848.285156 901.5 L 836.054688 901.5 L 836.054688 889.332031 L 811.589844 889.332031 L 811.589844 877.167969 L 760.304688 877.167969 L 760.304688 889.332031 L 735.839844 889.332031 L 735.839844 901.5 L 711.375 901.5 L 711.375 925.839844 L 699.144531 925.839844 L 699.144531 950.183594 L 686.914062 950.183594 L 686.914062 1001.210938 L 699.144531 1001.210938 L 699.144531 1025.554688 L 711.375 1025.554688 L 711.375 1037.71875 L 723.609375 1037.71875 L 723.609375 1049.882812 L 735.839844 1049.882812 L 735.839844 1062.050781 L 836.066406 1062.050781 L 836.066406 1049.882812 L 848.296875 1049.882812 L 848.296875 1037.71875 L 860.53125 1037.71875 L 860.53125 1025.554688 L 872.761719 1025.554688 L 872.761719 1001.210938 L 884.996094 1001.210938 L 884.996094 950.183594 L 883.820312 950.183594 Z M 738.164062 976.859375 L 760.28125 976.859375 L 760.28125 989.023438 L 774.859375 989.023438 L 774.859375 976.859375 L 787.089844 976.859375 L 787.089844 964.691406 L 799.324219 964.691406 L 799.324219 952.527344 L 811.554688 952.527344 L 811.554688 940.363281 L 821.441406 940.363281 L 821.441406 962.359375 L 809.210938 962.359375 L 809.210938 986.703125 L 796.976562 986.703125 L 796.976562 998.867188 L 784.746094 998.867188 L 784.746094 1011.035156 L 762.628906 1011.035156 L 762.628906 998.867188 L 750.394531 998.867188 L 750.394531 986.703125 L 738.164062 986.703125 Z M 738.164062 976.859375 " fill-opacity="1" fill-rule="nonzero"/><path fill="#fff7d4" d="M 798.164062 633.734375 L 466.640625 633.734375 L 466.640625 1037.707031 L 493.453125 1037.707031 L 493.453125 1025.542969 L 517.914062 1025.542969 L 517.914062 1013.378906 L 527.800781 1013.378906 L 527.800781 1025.542969 L 552.265625 1025.542969 L 552.265625 1037.707031 L 591.320312 1037.707031 L 591.320312 1025.542969 L 603.550781 1025.542969 L 603.550781 1013.378906 L 625.671875 1013.378906 L 625.671875 1025.542969 L 650.132812 1025.542969 L 650.132812 1037.707031 L 664.710938 1037.707031 L 664.710938 1025.542969 L 689.175781 1025.542969 L 689.175781 1011.035156 L 676.945312 1011.035156 L 676.945312 940.351562 L 689.175781 940.351562 L 689.175781 916.007812 L 701.410156 916.007812 L 701.410156 891.667969 L 725.871094 891.667969 L 725.871094 879.5 L 738.105469 879.5 L 738.105469 867.335938 L 799.277344 867.335938 L 799.277344 633.734375 L 798.105469 633.734375 Z M 650.167969 889.320312 L 637.9375 889.320312 L 637.9375 901.488281 L 530.171875 901.488281 L 530.171875 889.320312 L 517.9375 889.320312 L 517.9375 879.5 L 650.179688 879.5 L 650.179688 889.320312 Z M 517.925781 721.269531 L 517.925781 709.105469 L 735.804688 709.105469 L 735.804688 731.101562 L 517.925781 731.101562 Z M 699.109375 816.296875 L 530.171875 816.296875 L 530.171875 804.128906 L 517.9375 804.128906 L 517.9375 794.308594 L 735.816406 794.308594 L 735.816406 804.128906 L 723.585938 804.128906 L 723.585938 816.296875 Z M 699.109375 816.296875 " fill-opacity="1" fill-rule="nonzero"/><g clip-path="url(#429beb2161)"><path fill="#000000" d="M 896.042969 937.996094 L 884.984375 937.996094 L 884.984375 913.652344 L 872.75 913.652344 L 872.75 901.488281 L 860.519531 901.488281 L 860.519531 889.320312 L 848.285156 889.320312 L 848.285156 877.15625 L 823.824219 877.15625 L 823.824219 864.992188 L 811.589844 864.992188 L 811.589844 609.390625 L 454.410156 609.390625 L 454.410156 621.558594 L 442.179688 621.558594 L 442.179688 1049.871094 L 454.410156 1049.871094 L 454.410156 1062.039062 L 493.464844 1062.039062 L 493.464844 1049.871094 L 505.695312 1049.871094 L 505.695312 1037.707031 L 527.8125 1037.707031 L 527.8125 1049.871094 L 552.277344 1049.871094 L 552.277344 1062.039062 L 591.332031 1062.039062 L 591.332031 1049.871094 L 603.5625 1049.871094 L 603.5625 1037.707031 L 625.683594 1037.707031 L 625.683594 1049.871094 L 650.144531 1049.871094 L 650.144531 1062.039062 L 676.957031 1062.039062 L 676.957031 1049.871094 L 689.1875 1049.871094 L 689.1875 1037.707031 L 699.074219 1037.707031 L 699.074219 1049.871094 L 711.304688 1049.871094 L 711.304688 1062.039062 L 723.539062 1062.039062 L 723.539062 1074.203125 L 748.003906 1074.203125 L 748.003906 1086.367188 L 811.519531 1086.367188 L 811.519531 1074.203125 L 848.226562 1074.203125 L 848.226562 1062.039062 L 860.460938 1062.039062 L 860.460938 1049.871094 L 872.691406 1049.871094 L 872.691406 1037.707031 L 884.925781 1037.707031 L 884.925781 1001.199219 L 897.15625 1001.199219 L 897.15625 938.007812 L 895.984375 938.007812 Z M 882.636719 962.335938 L 882.636719 998.84375 L 870.40625 998.84375 L 870.40625 1023.1875 L 858.171875 1023.1875 L 858.171875 1035.351562 L 845.941406 1035.351562 L 845.941406 1047.515625 L 833.710938 1047.515625 L 833.710938 1059.683594 L 738.175781 1059.683594 L 738.175781 1047.515625 L 725.941406 1047.515625 L 725.941406 1035.351562 L 713.710938 1035.351562 L 713.710938 1023.1875 L 701.480469 1023.1875 L 701.480469 998.84375 L 689.246094 998.84375 L 689.246094 952.503906 L 701.480469 952.503906 L 701.480469 928.160156 L 713.710938 928.160156 L 713.710938 903.820312 L 738.175781 903.820312 L 738.175781 891.65625 L 762.640625 891.65625 L 762.640625 879.488281 L 809.234375 879.488281 L 809.234375 891.65625 L 833.699219 891.65625 L 833.699219 903.820312 L 845.929688 903.820312 L 845.929688 915.984375 L 858.160156 915.984375 L 858.160156 928.148438 L 870.394531 928.148438 L 870.394531 952.492188 L 882.625 952.492188 L 882.625 962.3125 Z M 503.351562 1023.199219 L 491.117188 1023.199219 L 491.117188 1035.363281 L 469 1035.363281 L 469 636.078125 L 797 636.078125 L 797 864.980469 L 735.828125 864.980469 L 735.828125 877.144531 L 723.597656 877.144531 L 723.597656 889.308594 L 699.132812 889.308594 L 699.132812 913.652344 L 686.902344 913.652344 L 686.902344 937.996094 L 674.667969 937.996094 L 674.667969 1013.367188 L 686.902344 1013.367188 L 686.902344 1023.1875 L 662.4375 1023.1875 L 662.4375 1035.351562 L 652.550781 1035.351562 L 652.550781 1023.1875 L 628.085938 1023.1875 L 628.085938 1011.023438 L 601.277344 1011.023438 L 601.277344 1023.1875 L 589.042969 1023.1875 L 589.042969 1035.351562 L 554.683594 1035.351562 L 554.683594 1023.1875 L 530.21875 1023.1875 L 530.21875 1011.023438 L 515.640625 1011.023438 L 515.640625 1023.1875 L 503.410156 1023.1875 Z M 822.636719 937.996094 L 823.8125 937.996094 L 823.8125 964.679688 L 811.578125 964.679688 L 811.578125 989.023438 L 799.347656 989.023438 L 799.347656 1001.1875 L 787.113281 1001.1875 L 787.113281 1013.355469 L 760.304688 1013.355469 L 760.304688 1001.1875 L 748.074219 1001.1875 L 748.074219 989.023438 L 735.839844 989.023438 L 735.839844 974.515625 L 762.652344 974.515625 L 762.652344 986.679688 L 772.539062 986.679688 L 772.539062 974.515625 L 784.769531 974.515625 L 784.769531 962.347656 L 797 962.347656 L 797 950.183594 L 809.234375 950.183594 L 809.234375 938.019531 L 822.636719 938.019531 Z M 516.753906 891.667969 L 515.582031 891.667969 L 515.582031 877.15625 L 652.515625 877.15625 L 652.515625 891.667969 L 640.28125 891.667969 L 640.28125 903.832031 L 527.824219 903.832031 L 527.824219 891.667969 Z M 516.753906 806.460938 L 515.582031 806.460938 L 515.582031 791.953125 L 738.152344 791.953125 L 738.152344 806.460938 L 725.917969 806.460938 L 725.917969 818.628906 L 527.824219 818.628906 L 527.824219 806.460938 Z M 516.753906 733.449219 L 515.582031 733.449219 L 515.582031 706.761719 L 738.152344 706.761719 L 738.152344 733.449219 Z M 516.753906 733.449219 " fill-opacity="1" fill-rule="nonzero"/></g><g transform="matrix(1, 0, 0, 1, 261, 412)"><g clip-path="url(#a800f440b8)"><g fill="#ffffff" fill-opacity="1"><g transform="translate(0.454213, 120.491056)"><g><path d="M 13.515625 0 L 13.515625 -94.265625 L 39.90625 -94.265625 C 52.976562 -94.265625 62.332031 -92.515625 67.96875 -89.015625 C 73.601562 -85.515625 76.421875 -79.695312 76.421875 -71.5625 C 76.421875 -65 74.78125 -59.523438 71.5 -55.140625 C 68.21875 -50.753906 62.726562 -46.675781 55.03125 -42.90625 L 88.390625 0 L 70.828125 0 L 41.078125 -39.234375 L 28 -39.234375 L 28 0 Z M 28 -50.1875 L 35.640625 -50.1875 C 43.421875 -50.1875 49.585938 -51.898438 54.140625 -55.328125 C 58.703125 -58.753906 60.984375 -63.382812 60.984375 -69.21875 C 60.984375 -74.601562 59.269531 -78.3125 55.84375 -80.34375 C 52.414062 -82.375 46.097656 -83.390625 36.890625 -83.390625 L 28 -83.390625 Z M 28 -50.1875 "/></g></g></g><g fill="#ffffff" fill-opacity="1"><g transform="translate(91.125742, 120.491056)"><g><path d="M 15.875 0 L 15.875 -94.265625 L 79.578125 -94.265625 L 79.578125 -83.390625 L 30.34375 -83.390625 L 30.34375 -54.8125 L 72.078125 -54.8125 L 72.078125 -43.9375 L 30.34375 -43.9375 L 30.34375 -10.875 L 82.953125 -10.875 L 82.953125 0 Z M 15.875 0 "/></g></g></g><g fill="#ffffff" fill-opacity="1"><g transform="translate(181.797272, 120.491056)"><g><path d="M 0.875 0 L 38.0625 -94.265625 L 52.53125 -94.265625 L 89.71875 0 L 74.359375 0 L 65.46875 -23.59375 L 22.40625 -23.59375 L 13.375 0 Z M 26.75 -34.46875 L 61.140625 -34.46875 L 43.9375 -79.5 L 43.796875 -79.5 Z M 26.75 -34.46875 "/></g></g></g><g fill="#ffffff" fill-opacity="1"><g transform="translate(272.468801, 120.491056)"><g><path d="M 9.546875 0 L 9.546875 -94.265625 L 37.984375 -94.265625 C 69.335938 -94.265625 85.015625 -79.179688 85.015625 -49.015625 C 85.015625 -35.046875 81.609375 -23.753906 74.796875 -15.140625 C 70.535156 -9.703125 65.28125 -5.816406 59.03125 -3.484375 C 52.789062 -1.160156 44.476562 0 34.09375 0 Z M 24.03125 -10.875 L 31.296875 -10.875 C 45.109375 -10.875 54.941406 -13.613281 60.796875 -19.09375 C 66.648438 -24.582031 69.578125 -33.796875 69.578125 -46.734375 C 69.578125 -59.859375 66.921875 -69.25 61.609375 -74.90625 C 56.296875 -80.5625 47.492188 -83.390625 35.203125 -83.390625 L 24.03125 -83.390625 Z M 24.03125 -10.875 "/></g></g></g><g fill="#ffffff" fill-opacity="1"><g transform="translate(363.14033, 120.491056)"><g><path d="M 6.90625 0 L 6.90625 -94.265625 L 24.328125 -94.265625 L 45.046875 -36.21875 L 45.1875 -36.21875 L 65.546875 -94.265625 L 83.6875 -94.265625 L 83.6875 0 L 71.859375 0 L 71.859375 -80.90625 L 71.71875 -80.90625 L 50.484375 -19.90625 L 38.28125 -19.90625 L 17.125 -79.203125 L 16.96875 -79.203125 L 16.96875 0 Z M 6.90625 0 "/></g></g></g><g fill="#ffffff" fill-opacity="1"><g transform="translate(453.81186, 120.491056)"><g><path d="M 15.875 0 L 15.875 -94.265625 L 79.578125 -94.265625 L 79.578125 -83.390625 L 30.34375 -83.390625 L 30.34375 -54.8125 L 72.078125 -54.8125 L 72.078125 -43.9375 L 30.34375 -43.9375 L 30.34375 -10.875 L 82.953125 -10.875 L 82.953125 0 Z M 15.875 0 "/></g></g></g><g fill="#ffffff" fill-opacity="1"><g transform="translate(544.483389, 120.491056)"><g><path d="M 34.46875 0 L 34.46875 -21.75 L 56.21875 -21.75 L 56.21875 0 Z M 34.46875 0 "/></g></g></g><g fill="#ffffff" fill-opacity="1"><g transform="translate(635.154953, 120.491056)"><g><path d="M 6.828125 0 L 6.828125 -79.796875 L 19.984375 -79.796875 L 19.984375 -63.921875 C 22.972656 -70.679688 25.726562 -75.3125 28.25 -77.8125 C 30.769531 -80.3125 33.96875 -81.5625 37.84375 -81.5625 C 46.21875 -81.5625 50.921875 -75.679688 51.953125 -63.921875 C 56.703125 -75.679688 62.65625 -81.5625 69.8125 -81.5625 C 79.207031 -81.5625 83.90625 -73.847656 83.90625 -58.421875 L 83.90625 0 L 70.765625 0 L 70.765625 -55.1875 C 70.765625 -60.664062 70.441406 -64.320312 69.796875 -66.15625 C 69.160156 -68 67.890625 -68.921875 65.984375 -68.921875 C 63.679688 -68.921875 61.191406 -67.171875 58.515625 -63.671875 C 55.847656 -60.171875 53.660156 -55.773438 51.953125 -50.484375 L 51.953125 0 L 38.796875 0 L 38.796875 -55.1875 C 38.796875 -60.664062 38.476562 -64.320312 37.84375 -66.15625 C 37.207031 -68 35.929688 -68.921875 34.015625 -68.921875 C 31.710938 -68.921875 29.265625 -67.21875 26.671875 -63.8125 C 24.078125 -60.40625 21.847656 -55.960938 19.984375 -50.484375 L 19.984375 0 Z M 6.828125 0 "/></g></g></g><g fill="#ffffff" fill-opacity="1"><g transform="translate(725.826448, 120.491056)"><g><path d="M 63.484375 0 L 63.484375 -14.984375 C 56.429688 -3.765625 47.710938 1.84375 37.328125 1.84375 C 28.316406 1.84375 21.203125 -1.65625 15.984375 -8.65625 C 10.765625 -15.664062 8.15625 -25.195312 8.15625 -37.25 C 8.15625 -50.476562 11.238281 -61.171875 17.40625 -69.328125 C 23.582031 -77.484375 31.664062 -81.5625 41.65625 -81.5625 C 50.226562 -81.5625 57.503906 -77.9375 63.484375 -70.6875 L 63.484375 -116.015625 L 77.953125 -116.015625 L 77.953125 0 Z M 63.484375 -59.8125 C 56.722656 -67.0625 50.109375 -70.6875 43.640625 -70.6875 C 37.273438 -70.6875 32.34375 -67.894531 28.84375 -62.3125 C 25.34375 -56.726562 23.59375 -48.863281 23.59375 -38.71875 C 23.59375 -19.957031 29.148438 -10.578125 40.265625 -10.578125 C 48.546875 -10.578125 56.285156 -15.671875 63.484375 -25.859375 Z M 63.484375 -59.8125 "/></g></g></g></g></g></svg>